<?xml version="1.0" encoding="utf-8"?>
<!-- Generator: Adobe Illustrator 24.0.3, SVG Export Plug-In . SVG Version: 6.00 Build 0)  -->
<svg version="1.1" id="Layer_1" xmlns="http://www.w3.org/2000/svg" xmlns:xlink="http://www.w3.org/1999/xlink" x="0px" y="0px"
	 viewBox="0 0 457.5 378.5" style="enable-background:new 0 0 457.5 378.5;" xml:space="preserve">
<style type="text/css">
	.st0{fill:#02D4D8;}
	.st1{fill:#0A192D;}
</style>
<g>
	<path class="st0" d="M358.2,69.8h99.3L306.3,221.9l92.1,156.6H298.2l-54.6-95.7l-93.9,95.7H48.6L206.1,221L358.2,69.8z"/>
	<polygon class="st1" points="69.9,69.9 203.1,193.3 203.2,121.4 203.2,121.4 254.8,69.9 	"/>
	<g>
		<path class="st0" d="M100.4,118.2c-8.8,5.6-19.3,8.9-30.5,8.9c-31.6,0-57.2-25.6-57.2-57.2s25.6-57.2,57.2-57.2
			c26.5,0,48.7,18,55.2,42.5h13.1C131.4,23.7,103.4,0,69.9,0C31.3,0,0,31.3,0,69.9s31.3,69.9,69.9,69.9c14.9,0,28.7-4.7,40.1-12.7
			L100.4,118.2z"/>
	</g>
	<path class="st0" d="M45.6,85.9c-3.1-4.6-4.8-10.1-4.8-16c0-2.1,0.3-4.2,0.7-6.2c0.7-3,1.9-5.9,3.4-8.5c5.1-8.6,14.3-14.4,25-14.4
		c6,0,11.5,1.9,16.1,5l8.4-8.3c-6.8-5.2-15.3-8.3-24.5-8.3c-22.5,0-40.7,18.2-40.7,40.7c0,9.1,3,17.5,8.1,24.3L45.6,85.9z"/>
</g>
</svg>
